<svg id="visual" viewBox="0 0 960 540" width="960" height="540" xmlns="http://www.w3.org/2000/svg" xmlns:xlink="http://www.w3.org/1999/xlink" version="1.1"><g><g transform="translate(922 272)"><path d="M0 -92.7L80.3 -46.3L80.3 46.3L0 92.7L-80.3 46.3L-80.3 -46.3Z" fill="#88ae62"></path></g><g transform="translate(225 113)"><path d="M0 -63L54.6 -31.5L54.6 31.5L0 63L-54.6 31.5L-54.6 -31.5Z" fill="#88ae62"></path></g><g transform="translate(352 491)"><path d="M0 -82L71 -41L71 41L0 82L-71 41L-71 -41Z" fill="#88ae62"></path></g><g transform="translate(448 62)"><path d="M0 -46L39.8 -23L39.8 23L0 46L-39.8 23L-39.8 -23Z" fill="#88ae62"></path></g><g transform="translate(551 397)"><path d="M0 -77L66.7 -38.5L66.7 38.5L0 77L-66.7 38.5L-66.7 -38.5Z" fill="#88ae62"></path></g></g></svg>